<svg xmlns="http://www.w3.org/2000/svg" width="16.541" height="17.354" viewBox="0 0 16.541 17.354">
  <g id="bok-appointment" transform="translate(0.15 0.15)">
    <path id="Path_347" data-name="Path 347" d="M16.617,2.624H14.181V1h-.812V2.624h-6.5V1H6.06V2.624H3.624A1.624,1.624,0,0,0,2,4.248V16.429a1.624,1.624,0,0,0,1.624,1.624H16.617a1.624,1.624,0,0,0,1.624-1.624V4.248A1.624,1.624,0,0,0,16.617,2.624Zm.812,13.8a.813.813,0,0,1-.812.812H3.624a.813.813,0,0,1-.812-.812V8.308H17.429Zm0-8.933H2.812V4.248a.813.813,0,0,1,.812-.812H6.06V5.06h.812V3.436h6.5V5.06h.812V3.436h2.436a.813.813,0,0,1,.812.812ZM9.738,13.181H6.872v-.812H9.738V9.527h.812v2.842h2.818v.812H10.55v2.842H9.738V13.181Z" transform="translate(-2 -1)" fill="#41474e" stroke="#41474e" stroke-width="0.3"/>
  </g>
</svg>
