<svg xmlns="http://www.w3.org/2000/svg" width="16.791" height="16.79" viewBox="0 0 16.791 16.79">
  <g id="Change-status" transform="translate(23591 11592)">
    <path id="Path_361" data-name="Path 361" d="M19.891,4.5H5.9A1.4,1.4,0,0,0,4.5,5.9V19.891a1.4,1.4,0,0,0,1.4,1.4H19.891a1.4,1.4,0,0,0,1.4-1.4V5.9A1.4,1.4,0,0,0,19.891,4.5Zm.175,15.216a.351.351,0,0,1-.35.35H6.074a.351.351,0,0,1-.35-.35V6.074a.351.351,0,0,1,.35-.35H19.716a.351.351,0,0,1,.35.35Z" transform="translate(-23595.5 -11596.5)" fill="#41474e"/>
    <path id="Path_362" data-name="Path 362" d="M19.87,13.05l-.77-.791a.165.165,0,0,0-.122-.052h0a.159.159,0,0,0-.122.052l-5.334,5.374L11.58,15.691a.169.169,0,0,0-.245,0l-.778.778a.174.174,0,0,0,0,.249l2.449,2.449a.774.774,0,0,0,.512.249.811.811,0,0,0,.507-.24h0L19.875,13.3A.187.187,0,0,0,19.87,13.05Z" transform="translate(-23597.771 -11600.206)" fill="#41474e"/>
  </g>
</svg>
