<svg xmlns="http://www.w3.org/2000/svg" width="13.43" height="15" viewBox="0 0 13.43 15">
  <g id="Copy_active" data-name="Copy active" transform="translate(55 167)">
    <path id="Path_238" data-name="Path 238" d="M139.352-79.8l-2.317-2.314v1.281a1.036,1.036,0,0,0,1.033,1.033Zm0,0" transform="translate(-185.413 -81.956)" fill="#0660ae"/>
    <path id="Path_239" data-name="Path 239" d="M-49.067-94.432V-96.2h-4.9A1.036,1.036,0,0,0-55-95.166v10.493a1.036,1.036,0,0,0,1.033,1.033h7.352a1.036,1.036,0,0,0,1.033-1.033v-8.037h-1.767a1.724,1.724,0,0,1-1.718-1.722Zm-4.191,3.123h3.488a.344.344,0,0,1,.344.344.344.344,0,0,1-.344.344h-3.488a.344.344,0,0,1-.344-.344.344.344,0,0,1,.344-.344Zm6.278,5.572h-6.278a.344.344,0,0,1-.344-.344.344.344,0,0,1,.344-.344h6.278a.344.344,0,0,1,.344.344.344.344,0,0,1-.344.344Zm.344-2.786a.345.345,0,0,1-.344.344h-6.278a.344.344,0,0,1-.344-.344.344.344,0,0,1,.344-.344h6.278a.345.345,0,0,1,.344.344Zm0,0" transform="translate(0 -68.36)" fill="#0660ae"/>
    <path id="Path_240" data-name="Path 240" d="M254.307-150.6h1.284l-2.317-2.314v1.281a1.036,1.036,0,0,0,1.033,1.033Zm0,0" transform="translate(-297.644 -13.596)" fill="#0660ae"/>
    <path id="Path_241" data-name="Path 241" d="M78.632-163.512a1.722,1.722,0,0,1-1.722-1.722V-167H72.358a1.036,1.036,0,0,0-1.033,1.033v.72h1.922a.362.362,0,0,1,.248.1l0,0,3.481,3.471a.34.34,0,0,1,.1.244v6.636h2.287a1.036,1.036,0,0,0,1.033-1.033v-7.689ZM79-158.98" transform="translate(-121.969 0)" fill="#0660ae"/>
  </g>
</svg>
