<svg id="create-tax-invoice" xmlns="http://www.w3.org/2000/svg" width="15.266" height="17.45" viewBox="0 0 15.266 17.45">
  <path id="Icon_metro-file-empty" data-name="Icon metro-file-empty" d="M19.045,5.832a15.453,15.453,0,0,0-1.485-1.7,15.453,15.453,0,0,0-1.7-1.486,2.717,2.717,0,0,0-1.549-.719H5.862A1.365,1.365,0,0,0,4.5,3.291V18.014a1.365,1.365,0,0,0,1.363,1.363H18.4a1.365,1.365,0,0,0,1.363-1.363V7.381a2.718,2.718,0,0,0-.719-1.549ZM16.789,4.9A14.873,14.873,0,0,1,18.025,6.29H15.4V3.667A14.857,14.857,0,0,1,16.789,4.9Zm1.885,13.111a.276.276,0,0,1-.273.273H5.862a.276.276,0,0,1-.273-.273V3.291a.276.276,0,0,1,.273-.273h8.45V6.836a.545.545,0,0,0,.545.545h3.816Z" transform="translate(-4.499 -1.928)" fill="#41474e"/>
  <path id="Icon_awesome-percentage" data-name="Icon awesome-percentage" d="M1.5,6A.88.88,0,1,0,.257,6,.88.88,0,0,0,1.5,6ZM5.02,8.277a.88.88,0,1,0,0,1.244A.88.88,0,0,0,5.02,8.277ZM4.993,5.1l-.311-.311a.44.44,0,0,0-.622,0L.284,8.561a.44.44,0,0,0,0,.622L.6,9.494a.44.44,0,0,0,.622,0L4.993,5.717A.44.44,0,0,0,4.993,5.1Z" transform="translate(4.238 2.215)" fill="#41474e"/>
</svg>
