<svg xmlns="http://www.w3.org/2000/svg" width="15.266" height="17.45" viewBox="0 0 15.266 17.45">
  <g id="create-ext-assessment" transform="translate(24755.283 11166.839)">
    <path id="Icon_metro-file-empty" data-name="Icon metro-file-empty" d="M19.045,5.832a15.453,15.453,0,0,0-1.485-1.7,15.453,15.453,0,0,0-1.7-1.486,2.717,2.717,0,0,0-1.549-.719H5.862A1.365,1.365,0,0,0,4.5,3.291V18.014a1.365,1.365,0,0,0,1.363,1.363H18.4a1.365,1.365,0,0,0,1.363-1.363V7.381a2.718,2.718,0,0,0-.719-1.549ZM16.789,4.9A14.873,14.873,0,0,1,18.025,6.29H15.4V3.667A14.857,14.857,0,0,1,16.789,4.9Zm1.885,13.111a.276.276,0,0,1-.273.273H5.862a.276.276,0,0,1-.273-.273V3.291a.276.276,0,0,1,.273-.273h8.45V6.836a.545.545,0,0,0,.545.545h3.816Z" transform="translate(-24759.781 -11168.767)" fill="#41474e"/>
    <path id="Path_357" data-name="Path 357" d="M8.834,6.667A2.167,2.167,0,1,1,6.667,4.5,2.167,2.167,0,0,1,8.834,6.667Z" transform="translate(-24754.695 -11163.489)" fill="none" stroke="#41474e" stroke-linecap="round" stroke-linejoin="round" stroke-width="1"/>
    <path id="Path_358" data-name="Path 358" d="M26.153,26.153l-1.178-1.178" transform="translate(-24771.473 -11180.268)" fill="none" stroke="#41474e" stroke-linecap="round" stroke-linejoin="round" stroke-width="1"/>
  </g>
</svg>
