<svg xmlns="http://www.w3.org/2000/svg" width="12.212" height="15" viewBox="0 0 12.212 15">
  <g id="PDF_disabled" data-name="PDF disabled" transform="translate(18 143)">
    <path id="Path_242" data-name="Path 242" d="M41.644,95.29c0-.226-.157-.361-.434-.361a.965.965,0,0,0-.23.022v.726a.875.875,0,0,0,.186.014c.3,0,.477-.149.477-.4Zm0,0" transform="translate(-56.673 -228.626)" fill="#d6d5d5"/>
    <path id="Path_243" data-name="Path 243" d="M101.451,95.144a1.147,1.147,0,0,0-.252.022v1.607a1,1,0,0,0,.193.011.762.762,0,0,0,.831-.86.7.7,0,0,0-.773-.78Zm0,0" transform="translate(-114.52 -228.766)" fill="#d6d5d5"/>
    <path id="Path_244" data-name="Path 244" d="M-9.58-143H-15.6a1.6,1.6,0,0,0-1.6,1.6v5.9h-.156a.643.643,0,0,0-.643.643v3.9a.643.643,0,0,0,.643.643h.156v.715a1.6,1.6,0,0,0,1.6,1.6h8.22a1.6,1.6,0,0,0,1.6-1.6v-9.625Zm-6.733,8.847a5.036,5.036,0,0,1,.827-.056,1.3,1.3,0,0,1,.827.217.791.791,0,0,1,.289.626.865.865,0,0,1-.249.642,1.255,1.255,0,0,1-.879.285,1.568,1.568,0,0,1-.209-.012v.968h-.606Zm8.928,5.175H-15.6a.619.619,0,0,1-.618-.619v-.715H-8.56a.643.643,0,0,0,.643-.643v-3.9a.643.643,0,0,0-.643-.643h-7.663v-5.9a.619.619,0,0,1,.618-.618l5.659-.006v2.092a1.107,1.107,0,0,0,1.107,1.107l2.049-.006.023,9.238a.619.619,0,0,1-.618.619Zm-6.595-2.517v-2.658a5.5,5.5,0,0,1,.827-.056,1.742,1.742,0,0,1,1.108.289,1.2,1.2,0,0,1,.458,1.02,1.371,1.371,0,0,1-.45,1.1,1.942,1.942,0,0,1-1.248.349,5.3,5.3,0,0,1-.695-.04Zm4.381-1.573v.5h-.972v1.088h-.614v-2.706h1.654v.5h-1.04v.618Zm0,0" transform="translate(0 0)" fill="#d6d5d5"/>
  </g>
</svg>
