<svg xmlns="http://www.w3.org/2000/svg" width="17.747" height="21.297" viewBox="0 0 17.747 21.297">
  <g id="Phonebook" transform="translate(-440 -123)">
    <path id="Path_184" data-name="Path 184" d="M455.973,123H442.662a1.777,1.777,0,0,0-1.775,1.775v1.775h-.444a.444.444,0,0,0,0,.887h1.775a.444.444,0,1,1,0,.887h-.887a.443.443,0,0,0-.444.444v2.218h-.444a.444.444,0,0,0,0,.887h1.775a.444.444,0,1,1,0,.887h-.887a.443.443,0,0,0-.444.444v2.218h-.444a.444.444,0,0,0,0,.887h1.775a.444.444,0,1,1,0,.887h-.887a.443.443,0,0,0-.444.444v2.218h-.444a.444.444,0,0,0,0,.887h1.775a.444.444,0,1,1,0,.887h-.887a.443.443,0,0,0-.444.444v.444a1.777,1.777,0,0,0,1.775,1.775h13.311a1.777,1.777,0,0,0,1.775-1.775V124.775A1.777,1.777,0,0,0,455.973,123Zm-.887,14.1a.988.988,0,0,1-.986.986,9.673,9.673,0,0,1-9.662-9.662.988.988,0,0,1,.986-.986h1.9a.988.988,0,0,1,.986.986,5.739,5.739,0,0,0,.286,1.8.991.991,0,0,1-.243,1.005l-.777,1.035a6.235,6.235,0,0,0,2.688,2.688l1.082-.817a.954.954,0,0,1,.965-.2,5.72,5.72,0,0,0,1.791.285.988.988,0,0,1,.986.986Zm0,0" transform="translate(0 0)" fill="#0660ae"/>
  </g>
</svg>
