<svg xmlns="http://www.w3.org/2000/svg" width="19.254" height="19.254" viewBox="0 0 19.254 19.254"><defs><style>.a{fill:#c4eccb;}</style></defs><path class="a" d="M58.689,863.3l-.939-.159c-.083-.232-.178-.461-.282-.683l.553-.773a1.675,1.675,0,0,0-.182-2.169l-1.128-1.128a1.677,1.677,0,0,0-2.165-.182l-.777.553a7.7,7.7,0,0,0-.729-.3l-.155-.921a1.681,1.681,0,0,0-1.662-1.406H49.629a1.68,1.68,0,0,0-1.662,1.405l-.163.956c-.231.084-.458.18-.68.286l-.763-.549a1.684,1.684,0,0,0-2.172.181l-1.131,1.128a1.679,1.679,0,0,0-.182,2.168l.562.79q-.156.335-.279.686l-.92.155A1.68,1.68,0,0,0,40.833,865v1.594a1.679,1.679,0,0,0,1.4,1.662l.956.163a7.356,7.356,0,0,0,.287.68l-.547.761a1.675,1.675,0,0,0,.182,2.169l1.128,1.128a1.677,1.677,0,0,0,2.165.182l.789-.562q.312.145.644.265l.156.938a1.68,1.68,0,0,0,1.662,1.406h1.6a1.68,1.68,0,0,0,1.662-1.405l.159-.939c.232-.083.461-.178.683-.282l.771.551a1.681,1.681,0,0,0,2.171-.18L57.831,872a1.681,1.681,0,0,0,.182-2.169l-.553-.777c.107-.227.2-.455.283-.682l.938-.157a1.68,1.68,0,0,0,1.406-1.662v-1.59A1.665,1.665,0,0,0,58.689,863.3Zm.269,3.256a.555.555,0,0,1-.463.55l-1.244.207a.606.606,0,0,0-.483.423,6.717,6.717,0,0,1-.451,1.087.606.606,0,0,0,.044.636l.733,1.029a.556.556,0,0,1-.06.717L55.9,872.334a.541.541,0,0,1-.392.164.55.55,0,0,1-.324-.1l-1.024-.732a.611.611,0,0,0-.64-.045,6.585,6.585,0,0,1-1.088.451.609.609,0,0,0-.42.481l-.211,1.245a.554.554,0,0,1-.549.464h-1.6a.554.554,0,0,1-.549-.464l-.208-1.243a.608.608,0,0,0-.418-.483,6.547,6.547,0,0,1-1.054-.433.615.615,0,0,0-.282-.069.606.606,0,0,0-.354.114l-1.043.742a.531.531,0,0,1-.318.1.545.545,0,0,1-.392-.164L43.91,871.23a.551.551,0,0,1-.06-.712l.729-1.013a.607.607,0,0,0,.043-.645,6.406,6.406,0,0,1-.456-1.083.609.609,0,0,0-.48-.417l-1.26-.215a.556.556,0,0,1-.465-.55V865a.554.554,0,0,1,.465-.549l1.228-.207a.607.607,0,0,0,.483-.425,6.546,6.546,0,0,1,.443-1.09.609.609,0,0,0-.044-.635l-.741-1.041a.555.555,0,0,1,.06-.716l1.132-1.128,0,0a.539.539,0,0,1,.389-.161.546.546,0,0,1,.322.1l1.018.733a.607.607,0,0,0,.644.043,6.437,6.437,0,0,1,1.082-.457.607.607,0,0,0,.418-.479l.215-1.261a.555.555,0,0,1,.55-.464h1.594a.554.554,0,0,1,.549.464l.207,1.229a.609.609,0,0,0,.425.483,6.585,6.585,0,0,1,1.13.465.608.608,0,0,0,.637-.044l1.031-.735a.532.532,0,0,1,.318-.1.548.548,0,0,1,.393.164l1.13,1.131a.549.549,0,0,1,.059.713l-.733,1.026a.611.611,0,0,0-.044.639,6.591,6.591,0,0,1,.451,1.088.609.609,0,0,0,.481.42l1.244.211h0a.54.54,0,0,1,.456.541Z" transform="translate(-40.833 -856.133)"/><path class="a" d="M50.46,862.017A3.743,3.743,0,1,0,54.2,865.76,3.748,3.748,0,0,0,50.46,862.017Zm0,6.359a2.615,2.615,0,1,1,2.615-2.616A2.62,2.62,0,0,1,50.46,868.376Z" transform="translate(-40.833 -856.133)"/></svg>