<svg xmlns="http://www.w3.org/2000/svg" width="17.775" height="17.564" viewBox="0 0 17.775 17.564">
  <path id="update-automation" d="M20.839,11.732l-1.115-.179a.34.34,0,0,1-.282-.29c-.021-.137-.043-.273-.073-.406a.344.344,0,0,1,.167-.367l.987-.547a.342.342,0,0,0,.167-.423l-.171-.47a.339.339,0,0,0-.4-.214l-1.106.214a.344.344,0,0,1-.367-.175q-.1-.179-.205-.359a.347.347,0,0,1,.03-.406l.739-.85a.34.34,0,0,0,.013-.453l-.32-.384a.337.337,0,0,0-.448-.064l-.97.581a.341.341,0,0,1-.4-.038c-.1-.09-.209-.179-.316-.265a.341.341,0,0,1-.107-.389l.4-1.055a.342.342,0,0,0-.141-.431l-.436-.252a.341.341,0,0,0-.444.094l-.709.888a.305.305,0,0,1-.363.107s-.239-.1-.419-.158a.34.34,0,0,1-.235-.329l.017-1.128a.344.344,0,0,0-.282-.359l-.5-.085a.345.345,0,0,0-.389.239L12.8,4.847a.341.341,0,0,1-.333.231c-.068,0-.141,0-.209,0s-.141,0-.209,0a.345.345,0,0,1-.333-.231L11.345,3.78a.345.345,0,0,0-.389-.239l-.5.085a.344.344,0,0,0-.282.359L10.2,5.112a.342.342,0,0,1-.235.329L9.547,5.6a.34.34,0,0,1-.376-.124l-.7-.867a.341.341,0,0,0-.444-.094l-.436.252a.338.338,0,0,0-.141.431l.4,1.055a.344.344,0,0,1-.107.389c-.107.085-.214.175-.316.265a.341.341,0,0,1-.4.038l-.957-.589a.342.342,0,0,0-.448.064L5.3,6.8a.34.34,0,0,0,.013.453l.739.85a.34.34,0,0,1,.03.406q-.109.173-.205.359a.347.347,0,0,1-.367.175L4.4,8.832a.344.344,0,0,0-.4.214l-.171.47a.342.342,0,0,0,.167.423l.987.547a.338.338,0,0,1,.167.367c-.026.137-.051.269-.073.406a.345.345,0,0,1-.282.29l-1.115.179a.345.345,0,0,0-.3.337v.5a.335.335,0,0,0,.3.337l1.115.179a.34.34,0,0,1,.282.29c.021.137.043.273.073.406a.344.344,0,0,1-.167.367l-.987.547a.342.342,0,0,0-.167.423l.171.47a.339.339,0,0,0,.4.214l1.106-.214a.344.344,0,0,1,.367.175q.1.179.205.359a.347.347,0,0,1-.03.406l-.739.85a.34.34,0,0,0-.013.453l.32.384a.337.337,0,0,0,.448.064l.97-.581a.341.341,0,0,1,.4.038c.1.09.209.179.316.265a.341.341,0,0,1,.107.389l-.4,1.055a.342.342,0,0,0,.141.431l.436.252a.341.341,0,0,0,.444-.094l.718-.88a.313.313,0,0,1,.35-.111c.145.06.243.094.423.154a.34.34,0,0,1,.235.329l-.017,1.128a.344.344,0,0,0,.282.359l.5.085a.345.345,0,0,0,.389-.239l.367-1.068a.341.341,0,0,1,.333-.231c.068,0,.141,0,.209,0s.141,0,.209,0a.345.345,0,0,1,.333.231l.367,1.068a.345.345,0,0,0,.389.239l.5-.085a.344.344,0,0,0,.282-.359l-.017-1.128a.34.34,0,0,1,.235-.329c.179-.06.3-.107.41-.149a.3.3,0,0,1,.354.09l.726.893a.341.341,0,0,0,.444.094l.436-.252a.338.338,0,0,0,.141-.431l-.4-1.055a.344.344,0,0,1,.107-.389c.107-.085.214-.175.316-.265a.341.341,0,0,1,.4-.038l.97.581a.342.342,0,0,0,.448-.064l.32-.384a.34.34,0,0,0-.013-.453l-.739-.85a.34.34,0,0,1-.03-.406q.109-.173.205-.359a.347.347,0,0,1,.367-.175l1.106.214a.344.344,0,0,0,.4-.214l.171-.47a.342.342,0,0,0-.167-.423l-.987-.547a.338.338,0,0,1-.167-.367c.026-.137.051-.269.073-.406a.345.345,0,0,1,.282-.29l1.115-.179a.345.345,0,0,0,.3-.337v-.5A.351.351,0,0,0,20.839,11.732Zm-11.75,4.9a.688.688,0,0,1-1.068.154,6.156,6.156,0,0,1-.013-8.909.685.685,0,0,1,1.068.149l2.392,4.126a.348.348,0,0,1,0,.342Zm9.148-2.87a6.157,6.157,0,0,1-7.713,4.463.682.682,0,0,1-.4-1l2.379-4.139a.339.339,0,0,1,.295-.171h4.771A.682.682,0,0,1,18.238,13.761Zm-.662-2.037H12.8a.334.334,0,0,1-.295-.171l-2.4-4.13a.685.685,0,0,1,.393-1,6.164,6.164,0,0,1,7.735,4.459A.681.681,0,0,1,17.576,11.724Z" transform="translate(-3.375 -3.535)" fill="#41474e"/>
</svg>
